# xmcd CD database file
#
# Track frame offsets:
#	150
#	27736
#	48246
#	65378
#	83827
#	100047
#	115965
#
# Disc length: 1879 seconds
#
# Revision: 0
# Processed by: cddbd v1.5.1PL0 Copyright (c) Steve Scherf et al.
# Submitted via: CDex 1.51
#
DISCID=55075507
DTITLE=GAPProject - Inside The Changes
DYEAR=2003
DGENRE=Jazz
TTITLE0=And Everything Like That
TTITLE1=Tomorrow In Your Pocket
TTITLE2=Blueprint
TTITLE3=It's Been That Way For Years
TTITLE4=Lucky Break
TTITLE5=2's Up
TTITLE6=One Stop Bop
EXTD=YEAR: 2003
EXTT0=
EXTT1=
EXTT2=
EXTT3=
EXTT4=
EXTT5=
EXTT6=
PLAYORDER=
